<svg version="1.1" xmlns="http://www.w3.org/2000/svg" xmlns:xlink="http://www.w3.org/1999/xlink" x="0px" y="0px"
	 viewBox="0 0 288.906 288.906" style="enable-background:new 0 0 288.906 288.906;" xml:space="preserve">
<g>
	<path d="M288.906,144.453C288.906,64.802,224.104,0,144.453,0S0,64.802,0,144.453s64.802,144.453,144.453,144.453
		S288.906,224.104,288.906,144.453z M18.089,139.94l18.897,10.91v45.576l-6.13,3.539C22.629,183.198,18,164.357,18,144.453
		C18,142.942,18.036,141.439,18.089,139.94z M270.906,144.453c0,20.447-4.884,39.773-13.538,56.882l-8.502-4.909v-45.576
		l21.885-12.635C270.852,140.282,270.906,142.361,270.906,144.453z M59.717,50.673l25.739,14.861v45.576l-39.47,22.788
		l-25.452-14.695C26.012,92.281,40.07,68.443,59.717,50.673z M268.034,117.634l-28.168,16.263l-39.47-22.788V65.534l27.589-15.929
		C247.873,67.14,262.219,90.814,268.034,117.634z M133.927,196.426l-39.471,22.788l-39.47-22.788v-45.576l39.47-22.788
		l39.471,22.788V196.426z M103.456,65.534l39.471-22.788l39.47,22.788v45.576l-39.47,22.788l-39.471-22.788V65.534z
		 M151.927,150.851l39.47-22.788l39.47,22.788v45.576l-39.47,22.788l-39.47-22.788V150.851z M200.396,234.944l39.47-22.789
		l8.183,4.724c-12.155,17.334-28.543,31.488-47.652,40.955V234.944z M191.396,49.804l-39.47-22.789v-8.788
		c22.102,1.295,42.696,8.287,60.33,19.533L191.396,49.804z M133.927,27.016L94.456,49.804L75.215,38.695
		c17.141-11.26,37.167-18.469,58.712-20.253V27.016z M45.986,212.156l39.47,22.789v21.326c-18.257-9.672-33.875-23.68-45.472-40.649
		L45.986,212.156z M103.456,234.944l39.471-22.789l39.47,22.789v30.143c-11.983,3.777-24.729,5.819-37.943,5.819
		c-14.343,0-28.135-2.405-40.997-6.826V234.944z"/>
</g>
</svg>
